<svg width="30" height="30" viewBox="0 0 30 30" fill="none" xmlns="http://www.w3.org/2000/svg">
<path d="M30 30H23.3333V18.75C23.3333 16.9857 21.3535 15.5097 19.5892 15.5097C17.8248 15.5097 16.6667 16.9857 16.6667 18.75V30H10V10H16.6667V13.3333C17.7705 11.5476 20.594 10.3955 22.5417 10.3955C26.6608 10.3955 30 13.7977 30 17.9167V30ZM6.66666 30H0V10H6.66666V30ZM3.33335 0C5.1743 0 6.66668 1.49238 6.66668 3.33333C6.66668 5.17428 5.1743 6.66667 3.33335 6.66667C1.4924 6.66667 1.66893e-05 5.17428 1.66893e-05 3.33333C1.66893e-05 1.49238 1.4924 0 3.33335 0Z" fill="white"/>
</svg>
