<svg width="10" height="14" viewBox="0 0 10 14" fill="none" xmlns="http://www.w3.org/2000/svg">
<path d="M1.66968 0.949707H9.16968V1.5564H1.66968V0.949707Z" fill="white"/>
<path d="M9.58636 3.04551H1.61136C1.50502 3.04409 1.4001 3.02246 1.30291 2.98191C1.20572 2.94137 1.11827 2.88276 1.04585 2.8096C0.973432 2.73645 0.917534 2.65028 0.881528 2.55628C0.845523 2.46228 0.830157 2.36241 0.836357 2.26268C0.835838 2.06421 0.915584 1.87297 1.05946 1.72764C1.20334 1.58231 1.40061 1.49374 1.61136 1.47985H9.58636C9.69686 1.47985 9.80285 1.43861 9.88099 1.36521C9.95913 1.2918 10.003 1.19225 10.003 1.08844C10.003 0.984626 9.95913 0.885068 9.88099 0.811664C9.80285 0.73826 9.69686 0.697021 9.58636 0.697021H1.61136C1.17952 0.711228 0.770431 0.882432 0.470377 1.17452C0.170324 1.46662 0.00275849 1.85676 0.00302323 2.26268C-0.00100774 2.32655 -0.00100774 2.3906 0.00302323 2.45447C-0.000991274 2.48567 -0.000991274 2.51721 0.00302323 2.54841V11.6566C0.00275849 12.0625 0.170324 12.4527 0.470377 12.7448C0.770431 13.0369 1.17952 13.2081 1.61136 13.2223H9.58636C9.69686 13.2223 9.80285 13.181 9.88099 13.1076C9.95913 13.0342 10.003 12.9347 10.003 12.8309V3.46432C10.0033 3.35783 9.96032 3.25526 9.88292 3.17745C9.80552 3.09965 9.69947 3.05247 9.58636 3.04551ZM9.16969 12.4394H1.61136C1.40061 12.4256 1.20334 12.337 1.05946 12.1917C0.915584 12.0463 0.835838 11.8551 0.836357 11.6566V3.6522C1.07327 3.77497 1.3409 3.8358 1.61136 3.82833H9.16969V12.4394Z" fill="white"/>
</svg>
