<svg width="15" height="15" viewBox="0 0 15 15" fill="none" xmlns="http://www.w3.org/2000/svg">
<path d="M14.2589 10.9467V12.9467C14.2597 13.1324 14.2217 13.3162 14.1473 13.4863C14.0729 13.6564 13.9638 13.8091 13.827 13.9346C13.6902 14.0602 13.5286 14.1557 13.3528 14.2152C13.1769 14.2747 12.9905 14.2968 12.8056 14.2801C10.7542 14.0572 8.78359 13.3562 7.05226 12.2334C5.44148 11.2098 4.07582 9.84418 3.05226 8.2334C1.92558 6.4942 1.22442 4.51406 1.00559 2.4534C0.988935 2.26904 1.01084 2.08324 1.06993 1.90781C1.12901 1.73239 1.22397 1.57119 1.34877 1.43448C1.47357 1.29777 1.62546 1.18854 1.79479 1.11375C1.96411 1.03895 2.14715 1.00024 2.33226 1.00006H4.33226C4.6558 0.99688 4.96946 1.11145 5.21477 1.32242C5.46008 1.53339 5.62031 1.82636 5.66559 2.14673C5.75001 2.78678 5.90656 3.41522 6.13226 4.02006C6.22196 4.25868 6.24137 4.51801 6.1882 4.76732C6.13503 5.01663 6.0115 5.24547 5.83226 5.42673L4.98559 6.2734C5.93463 7.94243 7.31656 9.32436 8.98559 10.2734L9.83226 9.42673C10.0135 9.24749 10.2424 9.12396 10.4917 9.07079C10.741 9.01762 11.0003 9.03704 11.2389 9.12673C11.8438 9.35243 12.4722 9.50898 13.1123 9.5934C13.4361 9.63908 13.7319 9.8022 13.9433 10.0517C14.1547 10.3013 14.267 10.6198 14.2589 10.9467Z" stroke="white" stroke-width="1.3" stroke-linecap="round" stroke-linejoin="round"/>
</svg>
