<svg width="34" height="29" viewBox="0 0 34 29" fill="none" xmlns="http://www.w3.org/2000/svg">
<path d="M34 3.43288C32.7491 4.01519 31.4046 4.40872 29.9938 4.58567C31.4337 3.67961 32.5399 2.24491 33.0607 0.535271C31.7128 1.37433 30.2201 1.98357 28.6311 2.31181C27.3588 0.888969 25.546 0 23.5397 0C19.6874 0 16.5639 3.2778 16.5639 7.32088C16.5639 7.89465 16.6257 8.45343 16.7447 8.98932C10.9473 8.68396 5.80739 5.76935 2.36705 1.33999C1.76657 2.42124 1.42258 3.67884 1.42258 5.02057C1.42258 7.56054 2.654 9.80137 4.52575 11.1143C3.38241 11.0761 2.3067 10.7469 1.36631 10.1985C1.36565 10.2291 1.36565 10.2597 1.36565 10.2906C1.36565 13.8378 3.77012 16.7966 6.96113 17.4693C6.37584 17.6366 5.75958 17.7262 5.12342 17.7262C4.67394 17.7262 4.23696 17.6801 3.81097 17.5948C4.69866 20.5032 7.27473 22.62 10.3272 22.6789C7.93988 24.6427 4.93216 25.8131 1.66398 25.8131C1.10094 25.8131 0.545699 25.7783 0 25.7105C3.08698 27.7878 6.7536 29 10.6928 29C23.5232 29 30.5396 17.8444 30.5396 8.16978C30.5396 7.85241 30.5328 7.53667 30.5193 7.22262C31.8823 6.19041 33.0649 4.90103 34 3.43288Z" fill="white"/>
</svg>
